# xmcd CD database file generated by OrangeCD 6.0
#
# Track frame offsets:
#	182
#	21332
#	40782
#	92382
#	103457
#	126432
#	144482
#
# Disc length: 2410 seconds
#
# Revision: 4
# Processed by: cddbd v1.5.2PL0 Copyright (c) Steve Scherf et al.
# Submitted via: OrangeCD 6.0
#
DISCID=5d096807
DTITLE=Stevie Ray Vaughan - Montreal '89
DYEAR=1900
DGENRE=Blues
TTITLE0=Scuttle Buttin'
TTITLE1=I Wanna Testify
TTITLE2=Voodoo Chile
TTITLE3=Honeybee
TTITLE4=Can't Stand The Weather
TTITLE5=Cold Shot
TTITLE6=Texas Flood
EXTD=Tuff Bites
EXTT0=
EXTT1=
EXTT2=
EXTT3=
EXTT4=
EXTT5=
EXTT6=
PLAYORDER=
